<svg id="ic-add-layer" xmlns="http://www.w3.org/2000/svg" width="22" height="22" viewBox="0 0 22 22">
  <path id="Path_2041" data-name="Path 2041" d="M0,0H22V22H0Z" fill="none"/>
  <path id="Path_2042" data-name="Path 2042" d="M3.8,5.6H2V18.2A1.805,1.805,0,0,0,3.8,20H16.4V18.2H3.8ZM18.2,2H7.4A1.805,1.805,0,0,0,5.6,3.8V14.6a1.805,1.805,0,0,0,1.8,1.8H18.2A1.805,1.805,0,0,0,20,14.6V3.8A1.805,1.805,0,0,0,18.2,2Zm0,12.6H7.4V3.8H18.2Zm-6.3-.9h1.8V10.1h3.6V8.3H13.7V4.7H11.9V8.3H8.3v1.8h3.6Z" fill="#fff"/>
</svg>
