<svg xmlns="http://www.w3.org/2000/svg" width="30" height="30" viewBox="0 0 30 30">
  <g id="ic-bar" transform="translate(-4231 -3872)">
    <rect id="Rectangle_659" data-name="Rectangle 659" width="30" height="30" transform="translate(4231 3872)" fill="none"/>
    <g id="menu" transform="translate(4234 3819.975)">
      <g id="grip-solid-horizontal_1_" transform="translate(0 58.025)">
        <path id="Path_1900" data-name="Path 1900" d="M23.438,351.279H1.563a1.563,1.563,0,0,1,0-3.125H23.438a1.563,1.563,0,0,1,0,3.125Z" transform="translate(0 -332.529)" fill="#5eb4f1"/>
        <path id="Path_1901" data-name="Path 1901" d="M23.438,206.215H1.563a1.563,1.563,0,0,1,0-3.125H23.438a1.563,1.563,0,0,1,0,3.125Z" transform="translate(0 -195.277)" fill="#5eb4f1"/>
        <path id="Path_1902" data-name="Path 1902" d="M23.438,61.15H1.563a1.563,1.563,0,0,1,0-3.125H23.438a1.562,1.562,0,0,1,0,3.125Z" transform="translate(0 -58.025)" fill="#5eb4f1"/>
      </g>
    </g>
  </g>
</svg>
