<svg id="ic-check-export" xmlns="http://www.w3.org/2000/svg" width="24" height="24" viewBox="0 0 24 24">
  <g id="Group_643" data-name="Group 643">
    <path id="Path_2013" data-name="Path 2013" d="M0,0H24V24H0Z" fill="none"/>
  </g>
  <g id="Group_645" data-name="Group 645">
    <g id="Group_644" data-name="Group 644">
      <path id="Path_2014" data-name="Path 2014" d="M15,3H5A2,2,0,0,0,3.01,5L3,19a2,2,0,0,0,1.99,2H19a2.006,2.006,0,0,0,2-2V9ZM5,19V5h9v5h5v9ZM9,8A1,1,0,1,1,8,7,1,1,0,0,1,9,8Zm0,4a1,1,0,1,1-1-1A1,1,0,0,1,9,12Zm0,4a1,1,0,1,1-1-1A1,1,0,0,1,9,16Z" fill="#1074b5"/>
    </g>
  </g>
</svg>
