<svg id="ic-export-search" xmlns="http://www.w3.org/2000/svg" width="24" height="24" viewBox="0 0 24 24">
  <g id="Group_963" data-name="Group 963">
    <rect id="Rectangle_723" data-name="Rectangle 723" width="24" height="24" fill="none"/>
  </g>
  <g id="Group_965" data-name="Group 965">
    <g id="Group_964" data-name="Group 964">
      <path id="Path_2871" data-name="Path 2871" d="M20,3H4A2.006,2.006,0,0,0,2,5V19a2.006,2.006,0,0,0,2,2H20a2.006,2.006,0,0,0,2-2V5A2.006,2.006,0,0,0,20,3Zm0,16H4V5H20Z" fill="#1074b5" fill-rule="evenodd"/>
      <path id="Path_2872" data-name="Path 2872" d="M19.41,10.42,17.99,9l-3.17,3.17-1.41-1.42L12,12.16,14.82,15Z" fill="#1074b5" fill-rule="evenodd"/>
      <rect id="Rectangle_724" data-name="Rectangle 724" width="5" height="2" transform="translate(5 7)" fill="#1074b5"/>
      <rect id="Rectangle_725" data-name="Rectangle 725" width="5" height="2" transform="translate(5 11)" fill="#1074b5"/>
      <rect id="Rectangle_726" data-name="Rectangle 726" width="5" height="2" transform="translate(5 15)" fill="#1074b5"/>
    </g>
  </g>
</svg>
