<svg id="ic-folder-plus" xmlns="http://www.w3.org/2000/svg" width="24" height="24" viewBox="0 0 24 24">
  <g id="Group_705" data-name="Group 705">
    <rect id="Rectangle_717" data-name="Rectangle 717" width="24" height="24" fill="none"/>
  </g>
  <g id="Group_706" data-name="Group 706">
    <path id="Path_2040" data-name="Path 2040" d="M20,6H12L10,4H4A2,2,0,0,0,2.01,6L2,18a2.006,2.006,0,0,0,2,2H20a2.006,2.006,0,0,0,2-2V8A2.006,2.006,0,0,0,20,6Zm0,12H4V6H9.17l2,2H20ZM9.41,14.42,11,12.84V17h2V12.84l1.59,1.59L16,13.01,12.01,9,8,13.01Z" fill="#1074b5"/>
  </g>
</svg>
