<svg id="ic-indone" xmlns="http://www.w3.org/2000/svg" width="24" height="24" viewBox="0 0 24 24">
  <g id="Group_651" data-name="Group 651">
    <path id="Path_2016" data-name="Path 2016" d="M0,0H24V24H0Z" fill="none"/>
  </g>
  <g id="Group_653" data-name="Group 653">
    <g id="Group_652" data-name="Group 652">
      <path id="Path_2017" data-name="Path 2017" d="M13,2.05V5.08A7,7,0,0,1,19,12a7.124,7.124,0,0,1-.48,2.54l2.6,1.53A9.876,9.876,0,0,0,22,12,10.006,10.006,0,0,0,13,2.05ZM12,19A7,7,0,0,1,11,5.08V2.05a10,10,0,1,0,9.05,15.86l-2.6-1.53A6.951,6.951,0,0,1,12,19Z" fill="#1074b5"/>
    </g>
  </g>
</svg>
