<svg id="ic-import" xmlns="http://www.w3.org/2000/svg" width="20" height="20" viewBox="0 0 20 20">
  <path id="Path_2030" data-name="Path 2030" d="M0,0H20V20H0Z" fill="none"/>
  <path id="Path_2031" data-name="Path 2031" d="M16.125,9.033A6.244,6.244,0,0,0,4.458,7.367,5,5,0,0,0,5,17.333H15.833a4.155,4.155,0,0,0,.292-8.3Zm-.292,6.633H5a3.331,3.331,0,0,1-.367-6.642l.892-.092.417-.792a4.573,4.573,0,0,1,8.55,1.217l.25,1.25,1.275.092a2.486,2.486,0,0,1-.183,4.967ZM6.667,11.5H8.792V14h2.417V11.5h2.125L10,8.167Z" transform="translate(0 -0.667)" fill="#5eb4f1"/>
</svg>
