<svg xmlns="http://www.w3.org/2000/svg" width="24" height="24" viewBox="0 0 24 24">
  <g id="ic-incheck" transform="translate(-4035 -297)">
    <rect id="Rectangle_401" data-name="Rectangle 401" width="24" height="24" transform="translate(4035 297)" fill="none"/>
    <g id="Group_255" data-name="Group 255" transform="translate(4035 297)">
      <g id="Group_254" data-name="Group 254">
        <path id="Path_1535" data-name="Path 1535" d="M12,1,3,5v6c0,5.55,3.84,10.74,9,12,5.16-1.26,9-6.45,9-12V5Zm7,10a10.75,10.75,0,0,1-1.38,5.21l-1.45-1.45a5,5,0,1,0-1.42,1.42l1.72,1.72A9.515,9.515,0,0,1,12,20.94,10.5,10.5,0,0,1,5,11V6.3l7-3.11L19,6.3Zm-7,4a3,3,0,1,1,3-3A3,3,0,0,1,12,15Z" fill="#1074b5"/>
      </g>
    </g>
  </g>
</svg>
