<svg id="ic-image" xmlns="http://www.w3.org/2000/svg" width="30" height="30" viewBox="0 0 30 30">
  <path id="Path_1541" data-name="Path 1541" d="M0,0H30V30H0Z" fill="none"/>
  <path id="Path_1542" data-name="Path 1542" d="M23.006,5.5V23.006H5.5V5.5H23.006m0-2.5H5.5A2.508,2.508,0,0,0,3,5.5V23.006a2.508,2.508,0,0,0,2.5,2.5H23.006a2.508,2.508,0,0,0,2.5-2.5V5.5A2.508,2.508,0,0,0,23.006,3ZM16.929,14.078l-3.751,4.839L10.5,15.679,6.751,20.505h15l-4.826-6.427Z" transform="translate(0.747 0.747)" fill="#5eb4f1"/>
</svg>
