<svg xmlns="http://www.w3.org/2000/svg" width="20" height="20" viewBox="0 0 20 20">
  <g id="ic-layers" transform="translate(-6355 -360)">
    <rect id="Rectangle_701" data-name="Rectangle 701" width="20" height="20" transform="translate(6355 360)" fill="none"/>
    <path id="layers-half" d="M8.738,1.563a.531.531,0,0,0-.5,0L.281,5.807a.531.531,0,0,0,0,.936L3.383,8.4.28,10.051a.531.531,0,0,0,0,.936l7.958,4.244a.531.531,0,0,0,.5,0l7.958-4.244a.531.531,0,0,0,0-.936L13.6,8.4l3.1-1.654a.531.531,0,0,0,0-.936ZM8.489,9.917,1.657,6.275,8.489,2.632,15.32,6.275Z" transform="translate(6356.512 362.057)" fill="#5eb4f1"/>
  </g>
</svg>
