<svg id="ic-lock" xmlns="http://www.w3.org/2000/svg" width="30" height="30" viewBox="0 0 30 30">
  <rect id="Rectangle_661" data-name="Rectangle 661" width="30" height="30" fill="none"/>
  <path id="Path_1922" data-name="Path 1922" d="M17.5,3A12.31,12.31,0,0,0,5.191,15.309c0,.082.014.164.014.26L2.688,13.053.76,14.981l5.8,5.8,5.8-5.8L10.43,13.053,7.94,15.542c0-.082-.014-.15-.014-.233a9.594,9.594,0,1,1,2.9,6.852L8.884,24.09A12.306,12.306,0,1,0,17.5,3Zm2.735,10.942V12.574a2.735,2.735,0,1,0-5.471,0v1.368A1.372,1.372,0,0,0,13.4,15.309v4.1a1.372,1.372,0,0,0,1.368,1.368h5.471A1.372,1.372,0,0,0,21.6,19.412v-4.1A1.372,1.372,0,0,0,20.236,13.942Zm-1.368,0H16.133V12.574a1.368,1.368,0,1,1,2.735,0Z" transform="translate(-0.76)" fill="#1074b5"/>
</svg>
