<svg id="ic-occupy" xmlns="http://www.w3.org/2000/svg" width="24" height="24" viewBox="0 0 24 24">
  <g id="Group_646" data-name="Group 646">
    <rect id="Rectangle_691" data-name="Rectangle 691" width="24" height="24" fill="none"/>
  </g>
  <g id="Group_647" data-name="Group 647">
    <path id="Path_2015" data-name="Path 2015" d="M14.5,2.5c0,1.5-1.5,6-1.5,6H11S9.5,4,9.5,2.5a2.5,2.5,0,0,1,5,0ZM12,10a2,2,0,1,0,2,2A2.006,2.006,0,0,0,12,10Zm4.08-4.89a16.571,16.571,0,0,0,.39-2.06,10,10,0,1,1-8.94,0,18.224,18.224,0,0,0,.39,2.06,8,8,0,1,0,8.16,0ZM18,12A6,6,0,1,1,8.48,7.14c.23.81.65,2.07.65,2.07a4,4,0,1,0,5.74,0s.41-1.22.65-2.07A6,6,0,0,1,18,12Z" fill="#1074b5"/>
  </g>
</svg>
