<svg id="ic-ruler" xmlns="http://www.w3.org/2000/svg" width="28" height="28" viewBox="0 0 28 28">
  <path id="Path_1546" data-name="Path 1546" d="M0,0H28V28H0Z" fill="none"/>
  <path id="Path_1547" data-name="Path 1547" d="M24.184,6H3.318A2.254,2.254,0,0,0,1,8.169v8.675a2.254,2.254,0,0,0,2.318,2.169H24.184A2.254,2.254,0,0,0,26.5,16.844V8.169A2.254,2.254,0,0,0,24.184,6Zm0,10.844H3.318V8.169H5.637v4.338H7.955V8.169h2.318v4.338h2.318V8.169H14.91v4.338h2.318V8.169h2.318v4.338h2.318V8.169h2.318Z" transform="translate(0.249 1.493)" fill="#fff"/>
</svg>
