<svg xmlns="http://www.w3.org/2000/svg" width="30" height="30" viewBox="0 0 30 30">
  <g id="ic-tools" transform="translate(-4231 -3933)">
    <g id="Layer_x0020_1" transform="translate(4220.55 3922.555)">
      <g id="_258020488" transform="translate(12.45 12.445)">
        <path id="_258021608" d="M19.623,34.474a.905.905,0,0,1,.467.129,10.846,10.846,0,0,0,2.8,1.175.9.9,0,0,1,.666.861l.013,1.511a.272.272,0,0,0,.268.269l3.434.029a.263.263,0,0,0,.194-.079.266.266,0,0,0,.078-.193l-.014-1.664a.66.66,0,0,1,.513-.652,10.571,10.571,0,0,0,1.359-.414l-3.027-3.028a7.15,7.15,0,0,1-5.842-2.048,6.956,6.956,0,1,1,9.838-9.836,7.149,7.149,0,0,1,2.048,5.842L35.441,29.4a10.54,10.54,0,0,0,.414-1.36.659.659,0,0,1,.646-.513h0l1.664.014a.266.266,0,0,0,.194-.079.271.271,0,0,0,.081-.2l-.029-3.433a.272.272,0,0,0-.269-.269l-1.511-.013a.9.9,0,0,1-.861-.665,10.81,10.81,0,0,0-1.18-2.8A.9.9,0,0,1,34.722,19l1.043-1.043a.27.27,0,0,0,0-.382l-2.453-2.453a.27.27,0,0,0-.382,0l-1.043,1.042a.9.9,0,0,1-1.094.132A10.813,10.813,0,0,0,28,15.118a.9.9,0,0,1-.666-.861l-.012-1.514a.271.271,0,0,0-.268-.269l-3.434-.029h0a.272.272,0,0,0-.271.273L23.36,14.2a.889.889,0,0,1-.674.875,10.417,10.417,0,0,0-2.76,1.123.891.891,0,0,1-1.082-.136l-1.078-1.076a.27.27,0,0,0-.192-.079h0a.268.268,0,0,0-.19.079l-2.4,2.4a.27.27,0,0,0,0,.382l1.078,1.078a.891.891,0,0,1,.136,1.082,10.389,10.389,0,0,0-1.122,2.758.889.889,0,0,1-.868.674H14.2l-1.48-.013h0a.271.271,0,0,0-.271.273l.029,3.432a.271.271,0,0,0,.268.269l1.511.013a.9.9,0,0,1,.861.665,10.817,10.817,0,0,0,1.175,2.8.9.9,0,0,1-.132,1.094L15.12,32.93a.27.27,0,0,0,0,.382l2.453,2.453a.269.269,0,0,0,.192.079h0a.268.268,0,0,0,.19-.079L19,34.724a.888.888,0,0,1,.63-.261Z" transform="translate(-12.45 -12.445)" fill="#5eb4f1" fill-rule="evenodd"/>
        <path id="_258022896" d="M69.15,71.432a.312.312,0,0,1,.221.091l8.329,8.33A1.519,1.519,0,1,0,79.848,77.7l-8.331-8.33a.312.312,0,0,1-.09-.248l.234-2.658L68.9,63.706l-2.145.575,1.231,1.231A1.752,1.752,0,0,1,66.747,68.5h0a1.739,1.739,0,0,1-1.238-.514l-1.231-1.233L63.7,68.9l2.763,2.763,2.661-.234Z" transform="translate(-54.734 -54.731)" fill="#5eb4f1" fill-rule="evenodd"/>
      </g>
    </g>
    <rect id="Rectangle_660" data-name="Rectangle 660" width="30" height="30" transform="translate(4231 3933)" fill="none"/>
  </g>
</svg>
