<svg id="ic-user-name" xmlns="http://www.w3.org/2000/svg" width="22" height="22" viewBox="0 0 22 22">
  <g id="Group_7" data-name="Group 7">
    <rect id="Rectangle_256" data-name="Rectangle 256" width="22" height="22" fill="none"/>
  </g>
  <g id="Group_8" data-name="Group 8" transform="translate(1.467 1.833)">
    <path id="Path_628" data-name="Path 628" d="M11.167,2a9.167,9.167,0,1,0,9.167,9.167A9.17,9.17,0,0,0,11.167,2Zm0,3.667A3.208,3.208,0,1,1,7.958,8.875,3.212,3.212,0,0,1,11.167,5.667Zm0,12.833a7.341,7.341,0,0,1-5.628-2.64,9.122,9.122,0,0,1,11.257,0A7.341,7.341,0,0,1,11.167,18.5Z" transform="translate(-2 -2)" fill="#555"/>
  </g>
</svg>
