<svg xmlns="http://www.w3.org/2000/svg" width="30" height="30" viewBox="0 0 30 30">
  <g id="ic-view-light" transform="translate(-506 -222.176)">
    <g id="fact_check_black_24dp" transform="translate(506 222)">
      <g id="Group_65" data-name="Group 65">
        <rect id="Rectangle_292" data-name="Rectangle 292" width="28" height="30" transform="translate(0 0.176)" fill="none"/>
      </g>
    </g>
    <path id="Path_696" data-name="Path 696" d="M27.364,5.137A16.066,16.066,0,0,0,22.75,4.5,12.581,12.581,0,0,0,15.5,6.411,12.581,12.581,0,0,0,8.25,4.5,12.581,12.581,0,0,0,1,6.411V25.07a.7.7,0,0,0,.659.637c.132,0,.2-.064.33-.064a16.557,16.557,0,0,1,6.261-1.4,12.581,12.581,0,0,1,7.25,1.911,16.305,16.305,0,0,1,7.25-1.911,13.809,13.809,0,0,1,6.261,1.337.612.612,0,0,0,.33.064A.7.7,0,0,0,30,25.006V6.411A9.117,9.117,0,0,0,27.364,5.137Zm0,17.195a15.815,15.815,0,0,0-4.614-.637,16.305,16.305,0,0,0-7.25,1.911V8.958a16.305,16.305,0,0,1,7.25-1.911,15.815,15.815,0,0,1,4.614.637Z" transform="translate(506 220.684)" fill="#fff"/>
  </g>
</svg>
