<svg id="ic-year-check" xmlns="http://www.w3.org/2000/svg" width="20" height="20" viewBox="0 0 20 20">
  <rect id="Rectangle_700" data-name="Rectangle 700" width="20" height="20" fill="none"/>
  <g id="Group_663" data-name="Group 663" transform="translate(0.833 1.667)">
    <path id="Path_2032" data-name="Path 2032" d="M16.733,15.725A3.806,3.806,0,1,0,15.55,16.9l2.6,2.6,1.183-1.183Zm-3.167.092a2.083,2.083,0,1,1,2.083-2.083A2.084,2.084,0,0,1,13.567,15.817Zm-.3-7.083a4.906,4.906,0,0,0-1.75.375l-.458-.692-3.167,5.15L5.383,10.633,2.358,15.475,1,14.5,5.167,7.833l2.5,2.917L11,5.333Zm2.158.417a4.936,4.936,0,0,0-1.708-.408L17.983,2l1.35.983Z" transform="translate(-1 -2)" fill="#5eb4f1"/>
  </g>
</svg>
