<svg xmlns="http://www.w3.org/2000/svg" width="577" height="57.099" viewBox="0 0 577 57.099">
  <g id="login-title" transform="translate(-58.064)">
    <g id="Group_603" data-name="Group 603" transform="translate(58.064 0)">
      <g id="Group_967" data-name="Group 967">
        <path id="Path_1907" data-name="Path 1907" d="M118.386,48.687a10.32,10.32,0,0,1-.663,3,5.44,5.44,0,0,1-1.613,2.244q-2.15,2.087-6.955,2.086H92.145q-5.629,0-7.778-2.908-1.834-2.4-1.834-7.209V39.391A44.461,44.461,0,0,1,73.9,47.833a54.614,54.614,0,0,1-12.045,6.8L61.793,44.7a12.243,12.243,0,0,0,2.466-.443,14.81,14.81,0,0,0,2.214-.757V17.07H62.11V13.593h4.363V.82H75.7V13.593h4.552V17.07H75.7V40.4a16.159,16.159,0,0,0,3.414-1.139,22.094,22.094,0,0,0,3.414-1.9V22.888L78.74,24.025V20.548l3.794-1.2V4.3h8.853v12.14l3.857-1.074V.061h8.41V12.517l7.083-2.276a4.022,4.022,0,0,1,2.15-.159,4.291,4.291,0,0,1,2.971,2.245,3.562,3.562,0,0,1,.443,1.707V35.978a5.891,5.891,0,0,1-2.213,5.058,6.565,6.565,0,0,1-2.656,1.043,7.386,7.386,0,0,1-2.972-.031,9.825,9.825,0,0,1-2.561-.917,6.763,6.763,0,0,1-2.245-1.865V46.41h-8.41V18.9l-3.857,1.2V49.762a2.722,2.722,0,0,0,1.075,2.118,3.857,3.857,0,0,0,2.593.917h12.9a10.04,10.04,0,0,0,2.782-.348,7.721,7.721,0,0,0,2.15-.98,5.555,5.555,0,0,0,1.486-1.391,14.93,14.93,0,0,0,1.106-1.771,12.872,12.872,0,0,0,.949-3.573q.252-1.99.379-3.951h.569a20.922,20.922,0,0,1,.916,4.205,20.273,20.273,0,0,1,.1,3.7M107.7,15.932a.7.7,0,0,0-.253-.538.641.641,0,0,0-.569-.158l-3.225,1.012V36.292a7.159,7.159,0,0,0,1.012.95,2.841,2.841,0,0,0,1.2.568,1.411,1.411,0,0,0,1.391-.189,1.873,1.873,0,0,0,.443-1.455Z" transform="translate(-61.793 0.003)" fill="#333"/>
        <path id="Path_1908" data-name="Path 1908" d="M123.889,28.573V25.1H140.14V9.793H125.153V6.252h13.216a14.456,14.456,0,0,1-3.952-2.5A8.4,8.4,0,0,1,131.982.181h10.687a13.572,13.572,0,0,0,1.454,3.258,12.049,12.049,0,0,0,2.4,2.814h10.117a8.938,8.938,0,0,0,2.687-2.72A18.216,18.216,0,0,0,160.943.245h11.129a8.56,8.56,0,0,1-2.5,3.509,12.673,12.673,0,0,1-4.079,2.5h13.089V9.793H163.536V25.1h16.63v3.478Zm13.373-5.817a15.063,15.063,0,0,1-2.372-.064,12.486,12.486,0,0,1-3.857-.885,5.767,5.767,0,0,1-2.908-2.467,21.076,21.076,0,0,1-1.581-3.666q-.7-2.087-1.2-4.3h9.611q.5,2.214,1.075,4.428a30.156,30.156,0,0,0,1.454,4.3,2.849,2.849,0,0,0,2.023,1.96v.506q-1.138.127-2.244.19m37.655,31.236a6.2,6.2,0,0,1-2.181,1.487,7.82,7.82,0,0,1-3,.537H141.72a5.542,5.542,0,0,1-2.656-.759,4.492,4.492,0,0,1-2.024-2.213v2.971H127.3V31.861h9.737V34.77a4.657,4.657,0,0,1,2.086-2.182,7.005,7.005,0,0,1,3.288-.727h27.76a5.684,5.684,0,0,1,2.625.632,7.111,7.111,0,0,1,2.118,1.643,7.256,7.256,0,0,1,1.2,1.961,5.793,5.793,0,0,1,.442,2.214V49.25a6.688,6.688,0,0,1-1.644,4.742M166.76,38.058a3.075,3.075,0,0,0-.568-1.9,2.046,2.046,0,0,0-1.707-.821H137.041v6.7H166.76Zm0,7.4H137.041v7.019h26.938a2.925,2.925,0,0,0,2.149-.7,3.452,3.452,0,0,0,.632-2.339ZM153.925,9.793h-3.984V25.1h3.984Zm24.186,5.817a17.738,17.738,0,0,1-1.549,3.73,5.2,5.2,0,0,1-2.466,2.434,13.632,13.632,0,0,1-3.414,1.044,14.008,14.008,0,0,1-6.07-.189l-.064-.507a3.236,3.236,0,0,0,1.392-.663,3.749,3.749,0,0,0,1.011-1.106,22.312,22.312,0,0,0,1.8-4.585q.663-2.432.98-4.269h9.548q-.633,2.216-1.17,4.111" transform="translate(-59.012 0.008)" fill="#333"/>
        <path id="Path_1909" data-name="Path 1909" d="M241.174,24.748a10.307,10.307,0,0,1-2.908,1.233,9.441,9.441,0,0,1-5.185.064,7.518,7.518,0,0,1-2.467-1.234,8.378,8.378,0,0,1-2.023-2.244,15.333,15.333,0,0,1-1.36-2.4q-.538-1.2-1.043-2.529a3.059,3.059,0,0,0-.633-1.139,7.26,7.26,0,0,0-1.011-.948,7.5,7.5,0,0,0-2.656-1.075q-.633-.125-1.264-.19c-.422-.041-.865-.063-1.328-.063V25.539H209.179V14.788a27.021,27.021,0,0,0-3.952.823,23.952,23.952,0,0,0-3.825,1.453,10,10,0,0,1-2.086,4.205,11.96,11.96,0,0,1-3.731,2.94,20.417,20.417,0,0,1-4.9,1.74,21.883,21.883,0,0,1-5.723.473l-.126-.5a14.588,14.588,0,0,0,6.451-6.641,15.168,15.168,0,0,0,1.138-3.825,21.152,21.152,0,0,0,.19-4.394h9.737c-.043.337-.074.726-.1,1.169s-.053.876-.1,1.3q1.644-.508,3.6-1.012t3.414-.822V8.529H186.731V4.988h22.447V.182H219.3V4.988H241.87V8.529H219.3v2.529q2.213,0,4.268.159a37.716,37.716,0,0,1,4.079.536,26.815,26.815,0,0,1,3.193.76,11.96,11.96,0,0,1,2.5,1.075,5.12,5.12,0,0,1,1.549,1.391,16.7,16.7,0,0,1,1.359,2.213q.442.887.79,1.676c.232.529.474,1.065.727,1.613a3.733,3.733,0,0,0,2.339,2.213,4.521,4.521,0,0,0,3.289-.443l.379.443a14.1,14.1,0,0,1-2.593,2.055M186.288,52.665h56.025v3.541H186.288ZM238.52,45.14a4.585,4.585,0,0,1-1.076,1.834,6.35,6.35,0,0,1-4.869,1.96h-27.19a7.155,7.155,0,0,1-3.352-.757,6.538,6.538,0,0,1-2.276-2.277v2.781H189.64V26.74h10.118v2.972a6.6,6.6,0,0,1,5.754-2.909H231.5a9.68,9.68,0,0,1,3.194.537,6.336,6.336,0,0,1,2.434,1.422,6.17,6.17,0,0,1,1.771,4.554v9.421a7.575,7.575,0,0,1-.379,2.4m-9.612-12.014a2.469,2.469,0,0,0-.885-1.961,3.669,3.669,0,0,0-1.139-.631,4.229,4.229,0,0,0-1.454-.253H199.758v5.5h29.15Zm0,6.323-29.15-.064v5.945h25.8a3.878,3.878,0,0,0,2.529-.822,2.624,2.624,0,0,0,.822-2.024Z" transform="translate(-56.282 0.008)" fill="#333"/>
        <path id="Path_1910" data-name="Path 1910" d="M268.812,53.069a19.456,19.456,0,0,1-5.154,2.371,21.106,21.106,0,0,1-4.3.949,27.782,27.782,0,0,1-4.616.126q-2.086-.127-4.332-.412a36.167,36.167,0,0,1-4.268-.79l.063-.569a31.29,31.29,0,0,0,4.048-.506,19.693,19.693,0,0,0,3.794-1.138,18.425,18.425,0,0,0,2.972-1.581,14.576,14.576,0,0,0,2.782-2.4h13.4a20.22,20.22,0,0,1-4.394,3.952m-6.387-37.687a18.863,18.863,0,0,1-1.991,4.078,5.529,5.529,0,0,1-1.549,1.645,8.425,8.425,0,0,1-1.991,1.011,9.523,9.523,0,0,1-4.553.317,9.285,9.285,0,0,1-5.058-2.277l.189-.443a4.643,4.643,0,0,0,2.277-.063,3.1,3.1,0,0,0,1.77-1.328,24.281,24.281,0,0,0,1.771-3.668q.694-1.834,1.2-3.54h9.294q-.567,2.023-1.359,4.268m-3.319-6.229a7.333,7.333,0,0,1-4.426-.506,6.968,6.968,0,0,1-2.72-2.719q-.886-1.454-1.581-2.846t-1.2-2.656h9.928q.317.887.885,2.182a15.931,15.931,0,0,0,1.138,2.182,3.474,3.474,0,0,0,1.328,1.265,3.07,3.07,0,0,0,2.087.19l.19.567a12.456,12.456,0,0,1-5.628,2.34m39.963,36.36a6.671,6.671,0,0,1-5.122,1.9H265.176a3.968,3.968,0,0,1-2.277-.791,5.288,5.288,0,0,1-1.771-2.118v2.909h-9.421v-23.4h9.421v3.036a6.423,6.423,0,0,1,1.613-1.96,3.377,3.377,0,0,1,2.182-.949h29.213a6.358,6.358,0,0,1,4.68,1.9,5.624,5.624,0,0,1,1.834,4.3V40.9a6.674,6.674,0,0,1-1.581,4.616m3.7-22.985a16.135,16.135,0,0,1-3.382.727,21.958,21.958,0,0,1-3.857-.1,19.945,19.945,0,0,1-3.795-.727,13.655,13.655,0,0,1-4.268-2.119q-1.675-1.294-3.7-3a22.057,22.057,0,0,1-4.869,3.1,28.813,28.813,0,0,1-5.564,1.9,39.119,39.119,0,0,1-6.165.7,53.91,53.91,0,0,1-6.861-.19l-.064-.569a35.249,35.249,0,0,0,6.355-2.023,29.815,29.815,0,0,0,5.911-3.352,25.633,25.633,0,0,0,3.763-3.636,17.8,17.8,0,0,0,2.75-4.521h10.434a26.329,26.329,0,0,1-1.139,2.466q-.631,1.2-1.328,2.277h5.755a25.9,25.9,0,0,0,3.572,3.414,36.553,36.553,0,0,0,3.952,2.719,8.474,8.474,0,0,0,2.592.949,9.176,9.176,0,0,0,2.782.19l.126.443a15.592,15.592,0,0,1-3,1.359m-11.413,6.987a1.681,1.681,0,0,0-.632-1.264,1.971,1.971,0,0,0-1.328-.569H261.128v2.909h30.226Zm0,4.552H261.128v3.162h30.226Zm0,6.641H261.128v3.16h28.139a2.152,2.152,0,0,0,1.423-.568,1.766,1.766,0,0,0,.664-1.392ZM303.432,8.521a18.483,18.483,0,0,1-.222,1.865,17.531,17.531,0,0,1-.411,1.8h-9.233a17.056,17.056,0,0,0,.474-1.8q.221-1.044.348-1.928a1.229,1.229,0,0,0-.348-1.044A1.273,1.273,0,0,0,293.125,7H277.316a7.4,7.4,0,0,1-2.466,3.289,8.353,8.353,0,0,1-3.731,1.453,10.7,10.7,0,0,1-3.762-.031,9.568,9.568,0,0,1-3.509-1.359l.126-.569a3.387,3.387,0,0,0,2.118-.317,3.224,3.224,0,0,0,1.549-1.58q.885-1.834,1.581-3.7A29.617,29.617,0,0,0,270.361.364h9.611a18.346,18.346,0,0,1-.79,2.434q-.475,1.171-.98,2.371a6.66,6.66,0,0,1,2.055-1.3A5.951,5.951,0,0,1,282.5,3.4h15.808a5.054,5.054,0,0,1,4.11,1.834,5.441,5.441,0,0,1,1.012,3.288M296.54,56.767q-2.34-.127-4.616-.474a19.092,19.092,0,0,1-4.3-1.169,19.852,19.852,0,0,1-4.362-2.467,16.855,16.855,0,0,1-3.605-3.541h13.153a18.508,18.508,0,0,0,3.035,2.782,19.415,19.415,0,0,0,3.415,1.96,20.029,20.029,0,0,0,6.765,1.581l.064.568a39.314,39.314,0,0,1-9.548.76" transform="translate(-53.536 0.016)" fill="#333"/>
        <path id="Path_1911" data-name="Path 1911" d="M309.751,9.547V6.07h6.892V0h9.864V6.07h6.766V9.547Zm1.771,5.249h20.045v3.542H311.522Zm0,8.79h20.045v3.477H311.522ZM330.238,54.38a4.805,4.805,0,0,1-3.541,1.392h-2.656a3.539,3.539,0,0,1-2.15-.823,4.03,4.03,0,0,1-1.454-2.086v2.91h-8.915V32.185h8.915v2.91a3.652,3.652,0,0,1,1.423-2.087,3.474,3.474,0,0,1,1.991-.822h2.783a4.822,4.822,0,0,1,3.351,1.329,4.215,4.215,0,0,1,1.106,1.391,3.774,3.774,0,0,1,.412,1.707V51.155a4.369,4.369,0,0,1-1.265,3.225m-7.145-17.516a1.09,1.09,0,0,0-.348-.79,1.16,1.16,0,0,0-.854-.348h-1.454V52.293h1.391a1.34,1.34,0,0,0,.886-.316.957.957,0,0,0,.379-.76Zm23.586-6.259V55.9h-9.358V30.605h-4.427V27.063h4.427V7.334h9.358V27.063H351.1v3.542ZM367.8,50.4a8.5,8.5,0,0,1-1.011,3.984,4.2,4.2,0,0,1-1.613,1.359,6.364,6.364,0,0,1-2.5.537q-1.456.063-2.625.031t-2.814-.158a5.4,5.4,0,0,1-3.794-1.77,6.028,6.028,0,0,1-1.392-3.92V6.891a2.322,2.322,0,0,0-.916-1.96,3.237,3.237,0,0,0-1.992-.7h-15.3V.7h20.614a6.9,6.9,0,0,1,2.72.537,7.531,7.531,0,0,1,2.213,1.423A7.07,7.07,0,0,1,361,4.679a4.964,4.964,0,0,1,.6,2.339v44.9a.692.692,0,0,0,.317.6,1.392,1.392,0,0,0,.821.221,1.59,1.59,0,0,0,1.454-.7,11.306,11.306,0,0,0,1.454-4.774,40.935,40.935,0,0,0,.254-6.481l.568-.064a38.393,38.393,0,0,1,1.044,4.711A23.493,23.493,0,0,1,367.8,50.4" transform="translate(-50.686)" fill="#333"/>
        <path id="Path_1912" data-name="Path 1912" d="M422.344,7.7q.063,1.012.159,2.308a7.656,7.656,0,0,0,.537,2.372,6.111,6.111,0,0,0,1.139,1.834,3.8,3.8,0,0,0,1.707,1.075v.506a15.62,15.62,0,0,1-3.194.317,15.6,15.6,0,0,1-3.193-.317,9.4,9.4,0,0,1-3.32-1.2,6.261,6.261,0,0,1-2.054-2.086,6.574,6.574,0,0,1-.917-2.15A18.435,18.435,0,0,1,412.8,7.7h-1.392a7.906,7.906,0,0,1-.916,2.119A16.333,16.333,0,0,1,409,11.9a15.511,15.511,0,0,1-1.738,1.771,7.038,7.038,0,0,1-1.8,1.169v2.593h16.062A5.768,5.768,0,0,1,426.2,19.4a5.36,5.36,0,0,1,1.328,3.858v4.109h-4.679a6.954,6.954,0,0,1,.284,1.328,10.448,10.448,0,0,1,.1,1.265v1.9a5.958,5.958,0,0,1-1.328,3.858,5.162,5.162,0,0,1-1.645,1.2,5.015,5.015,0,0,1-2.149.443H389.4a3.868,3.868,0,0,1-2.277-.822,4.294,4.294,0,0,1-1.581-2.024v9.865a5.5,5.5,0,0,1,1.707-2.119,3.615,3.615,0,0,1,2.15-.79h30.921a5.489,5.489,0,0,1,2.213.442,5.555,5.555,0,0,1,1.707,1.139,5.4,5.4,0,0,1,1.454,3.667v4.552a4.65,4.65,0,0,1-4.869,4.806H389.211a3.33,3.33,0,0,1-2.15-.916,5.294,5.294,0,0,1-1.517-1.991v2.971h-9.865V27.364h-2.845V17.309h9.675v2.972a5.148,5.148,0,0,1,1.738-2.023,4.354,4.354,0,0,1,2.561-.822h8.347V15.792a18.153,18.153,0,0,1-4.332-.474,7.067,7.067,0,0,1-3.257-1.739q-2.213-1.9-2.213-5.881h-1.138a15.5,15.5,0,0,1-2.34,3.447,16.266,16.266,0,0,1-3.1,2.686,19.239,19.239,0,0,1-3.636,1.9,18.74,18.74,0,0,1-3.889,1.074L371,16.361a12.824,12.824,0,0,0,2.308-3.508,20.262,20.262,0,0,0,1.3-4.015,31.651,31.651,0,0,0,.6-4.238q.158-2.149.221-4.236h10.307q-.127.885-.189,1.96a11.443,11.443,0,0,1-.254,1.9h15.872V7.7h-6.577a15.124,15.124,0,0,0,.254,3.289A6.123,6.123,0,0,0,396.1,13.9h4.49a14.835,14.835,0,0,0,2.182-6.354,62.8,62.8,0,0,0,.411-7.177h9.738q-.064,1.011-.159,1.96t-.284,1.9h15.428V7.7Zm-4.552,15.429a2.08,2.08,0,0,0-.7-1.55,2.234,2.234,0,0,0-1.581-.662H382.508v3.6h3.035v2.845a6.621,6.621,0,0,1,1.8-2.023,3.9,3.9,0,0,1,2.371-.822h28.076Zm-4.174,6.7a1.694,1.694,0,0,0-.664-1.233,1.968,1.968,0,0,0-1.3-.6H385.544v5.88h26.115a1.751,1.751,0,0,0,1.454-.632,2.259,2.259,0,0,0,.506-1.454Zm2.34,16.883a1.722,1.722,0,0,0-.664-1.138,1.98,1.98,0,0,0-1.359-.632H385.544v7.651h28.327a2.032,2.032,0,0,0,1.423-.633,1.89,1.89,0,0,0,.664-1.391Z" transform="translate(-47.943 0.016)" fill="#333"/>
        <path id="Path_1913" data-name="Path 1913" d="M445.345,46.949a71.97,71.97,0,0,1-11.034,6.134V42.966q1.265-.127,2.751-.348t2.624-.474V25.576h-5.058V22.1h5.058V5.849h-5.5V2.369h20.424V5.849h-5V22.1h4.174v3.478h-4.174V39.361a19.7,19.7,0,0,0,2.466-.79q1.2-.475,2.4-1.044l.316.443a40.114,40.114,0,0,1-9.453,8.978m8,9.169V52.641h14.8V43.156H456.127V39.677h12.014V31.583a7.909,7.909,0,0,1-1.612-1.169,4.008,4.008,0,0,1-1.106-1.613v2.909H456V.726h9.422v2.72a4.851,4.851,0,0,1,1.517-1.835,3.363,3.363,0,0,1,2.024-.759h14.48a5.416,5.416,0,0,1,4.364,1.96,5.8,5.8,0,0,1,.916,1.612,5.6,5.6,0,0,1,.348,1.991V26.335a5.094,5.094,0,0,1-1.644,3.921,6.168,6.168,0,0,1-4.363,1.643H477.5v7.777h11.446v3.479H477.5v9.485h13.089v3.477Zm14.8-51.788h-2.719v9.991h2.719Zm0,13.469h-2.719V28.106h2.719Zm12.2-10.876a2.329,2.329,0,0,0-.76-1.9,2.837,2.837,0,0,0-2.086-.7v9.991h2.846Zm0,10.876H477.5V28.106a2.7,2.7,0,0,0,2.024-.443,1.908,1.908,0,0,0,.822-1.77Z" transform="translate(-45.113 0.033)" fill="#333"/>
        <path id="Path_1914" data-name="Path 1914" d="M551.239,54.022a15.9,15.9,0,0,1-3.225.854,8.893,8.893,0,0,1-5.185-.632,8.549,8.549,0,0,1-3.667-3.667q-.759-1.392-1.359-2.751t-1.17-2.687a7.547,7.547,0,0,0-2.719-3.6,8.22,8.22,0,0,0-4.489-1.391V48.8a7.517,7.517,0,0,1-.727,3.288,8.467,8.467,0,0,1-1.992,2.656,6.946,6.946,0,0,1-3.13,1.676,9.6,9.6,0,0,1-3.889.158,13.178,13.178,0,0,1-2.75-.916,11.013,11.013,0,0,1-2.372-1.487,15.046,15.046,0,0,1-3.224-3.92l.378-.316a16.053,16.053,0,0,0,1.8,1.074,14.933,14.933,0,0,0,1.866.822,2.757,2.757,0,0,0,2.782-.379,2.7,2.7,0,0,0,1.011-2.213v-8.6a23.659,23.659,0,0,0-4.268.885,38.438,38.438,0,0,0-4.079,1.518,49.792,49.792,0,0,1-1.2,6.07,6.866,6.866,0,0,1-1.454,2.592,7.683,7.683,0,0,1-2.466,1.834,9.959,9.959,0,0,1-3.161,1.012,9.327,9.327,0,0,1-3.414-.126,10.157,10.157,0,0,1-2.34-.76,18.381,18.381,0,0,1-2.149-1.2l.189-.569a5.459,5.459,0,0,0,3.857-.633,3.7,3.7,0,0,0,1.138-1.105,3.79,3.79,0,0,0,.7-1.739q.506-2.719.822-5.566t.506-5.627h9.358a7.046,7.046,0,0,1,.032,1.17,6.068,6.068,0,0,1-.159,1.169,47.453,47.453,0,0,1,8.094-2.024V34.388H501.222a2.626,2.626,0,0,1-2.592-3.7,2.7,2.7,0,0,1,1.2-1.234l17.9-9.421H501.917a2.229,2.229,0,0,1-1.548-.538,2.17,2.17,0,0,1-.727-1.3,1.92,1.92,0,0,1,.189-1.265,2.729,2.729,0,0,1,1.012-1.074l14.985-8.854H498.06V3.467h37.434a2.218,2.218,0,0,0,1.233-.348A5.142,5.142,0,0,0,537.77,2.2a7.65,7.65,0,0,0,1.392-1.96h11.761a12.755,12.755,0,0,1-1.328,2.467,11.581,11.581,0,0,1-1.9,2.149,9.847,9.847,0,0,1-2.149,1.549,5.182,5.182,0,0,1-2.467.6H531.763l-15.681,9.548h7.967L532.4,11.75h16.252L516.018,30.405a.427.427,0,0,0-.19.379.294.294,0,0,0,.19.317q3.415.063,6.608.093t6.544-.093a27.336,27.336,0,0,0,4.205-.475q2.181-.411,3.89-.854-.7-1.329-1.549-3.035t-1.487-3.162H544.6q.884,1.9,1.676,3.636a33.285,33.285,0,0,0,1.865,3.509,4.437,4.437,0,0,0,2.119,1.834,4.708,4.708,0,0,0,2.94.317l.126.569a12.4,12.4,0,0,1-3.319,1.612,13.3,13.3,0,0,1-3.447.6,9.863,9.863,0,0,1-7.208-2.782,32.746,32.746,0,0,1-4.837,1.043q-2.5.349-5.09.474v2.529q1.707.064,3.446.158t3.383.285a24.565,24.565,0,0,1,3.288.663,9.32,9.32,0,0,1,2.529,1.106,9.622,9.622,0,0,1,3.667,4.364c.168.378.369.833.6,1.359s.473,1.075.726,1.643.507,1.118.759,1.645.485,1,.7,1.422a4.213,4.213,0,0,0,2.4,2.34,6.19,6.19,0,0,0,3.035.316l.127.507a22.76,22.76,0,0,1-2.845,1.3" transform="translate(-42.405 0.011)" fill="#333"/>
        <path id="Path_1915" data-name="Path 1915" d="M565.733,50.043a8.791,8.791,0,0,1-1.676,2.815,8.277,8.277,0,0,1-2.845,2.118,21.072,21.072,0,0,1-3.731,1.3l-.317-.378a7.659,7.659,0,0,0,1.613-2.561,8.445,8.445,0,0,0,.537-3V37.934h6.955v8.41a9.716,9.716,0,0,1-.537,3.7m15.176-13.816a8.636,8.636,0,0,1-3.889-1.707,18.525,18.525,0,0,1-3.414.949,33.688,33.688,0,0,1-3.6.443,61.355,61.355,0,0,1-8.347-.19,3.3,3.3,0,0,1-2.909-1.961,3.1,3.1,0,0,1-.316-1.643,3.052,3.052,0,0,1,.632-1.643l7.651-10.5h-4.806a3.769,3.769,0,0,1-2.055-.538,4.159,4.159,0,0,1-1.359-1.358,4.124,4.124,0,0,1-.506-2.277,4.688,4.688,0,0,1,.821-2.4L567.6.121h10.56L567.725,15.74a.6.6,0,0,0,0,.538.447.447,0,0,0,.443.283h.949l3.984-5.5h11.065l-9.422,13.025h6.893v7.144a4.264,4.264,0,0,0,.348,1.74,4.384,4.384,0,0,0,.916,1.359,5.172,5.172,0,0,0,2.4,1.455v.568a15.326,15.326,0,0,1-4.394-.126m-4.332,20.487a12.963,12.963,0,0,1-3.319-.79,8.965,8.965,0,0,1-2.751-1.676,7.2,7.2,0,0,1-1.96-2.688,9.061,9.061,0,0,1-.7-3.635V37.934h6.956V51.972a5.208,5.208,0,0,0,2.023,4.237Zm-1.707-25.1q-.254-1.454-.442-3.256a26.036,26.036,0,0,1-.127-3.637l-5,6.829a.454.454,0,0,0-.063.507.508.508,0,0,0,.506.253,12.725,12.725,0,0,0,2.656-.159,19.472,19.472,0,0,0,2.466-.537m20.424,13.943a16.1,16.1,0,0,1-2.15,5.091q-3.6,5.437-12.393,6.448l-.19-.442c.294-.212.611-.453.949-.727a4.55,4.55,0,0,0,.822-.854,7.878,7.878,0,0,1-2.055-.949,9.019,9.019,0,0,1-1.739-1.454,8.907,8.907,0,0,1-1.708-2.592,7.693,7.693,0,0,1-.632-3.1V37.934h7.019V50.328a8.569,8.569,0,0,0,.159,1.643,6.646,6.646,0,0,0,.473,1.517,13.24,13.24,0,0,0,2.372-4.711,20.229,20.229,0,0,0,.663-5.217V30.536h9.105v8.536a27.69,27.69,0,0,1-.695,6.482m18.274-16.314a16.769,16.769,0,0,1-3.1-.1,10.667,10.667,0,0,1-2.972-.789,8.684,8.684,0,0,1-2.529-1.677,42.185,42.185,0,0,1-8.346,1.708,49.147,49.147,0,0,1-5.217.347,33.343,33.343,0,0,1-4.9-.284,5.111,5.111,0,0,1-1.96-.632,3.926,3.926,0,0,1-1.517-5.438L588.466,9.8h-6.7V6.319h11.129V.247h10.244V6.319h10.749V9.8h-15.3l-6.26,14.417a.718.718,0,0,0,.126.822,1.11,1.11,0,0,0,.822.317q1.075-.064,2.339-.19t2.562-.317q1.294-.19,2.529-.474c.821-.19,1.569-.389,2.244-.6a38.772,38.772,0,0,1-1.771-5.564q-.7-2.909-1.2-5.945h9.359q.5,3.415,1.2,6.766a34.945,34.945,0,0,0,1.96,6.387,4.816,4.816,0,0,0,1.612,2.024,4,4,0,0,0,2.434.822l.064.568a19.671,19.671,0,0,1-3.036.411m2.088,22.037a7.023,7.023,0,0,1-1.645,3.6,5.977,5.977,0,0,1-3.92,1.454,13.424,13.424,0,0,1-2.751-.031q-1.423-.158-2.687-.285a4.647,4.647,0,0,1-1.865-.5,6.314,6.314,0,0,1-1.549-1.139,5.673,5.673,0,0,1-1.707-4.173V30.536h9.675V49.948a1.194,1.194,0,0,0,.473,1.075,1.835,1.835,0,0,0,1.044.317,3.117,3.117,0,0,0,1.3-.411,1.664,1.664,0,0,0,.79-.917,19.94,19.94,0,0,0,.917-5,50.908,50.908,0,0,0,.031-5.375l.569-.063a39.938,39.938,0,0,1,1.423,5.722,15.408,15.408,0,0,1-.095,5.975" transform="translate(-39.604 0.005)" fill="#333"/>
      </g>
    </g>
  </g>
</svg>
