<svg xmlns="http://www.w3.org/2000/svg" xmlns:xlink="http://www.w3.org/1999/xlink" width="577.004" height="51.353" viewBox="0 0 577.004 51.353">
  <defs>
    <clipPath id="clip-path">
      <rect id="Rectangle_658" data-name="Rectangle 658" width="577.004" height="51.353" fill="#333"/>
    </clipPath>
  </defs>
  <g id="login-title" transform="translate(9 -18)">
    <path id="Path_1906" data-name="Path 1906" d="M20.359.242v17H2.1v3.128H20.359V46.705H0V49.89H50.273V46.705H29.686V20.374h18.6V17.246h-18.6v-17Z" transform="translate(-9 17.985)" fill="#333"/>
    <g id="Group_603" data-name="Group 603" transform="translate(-9 18)">
      <g id="Group_602" data-name="Group 602" transform="translate(0)" clip-path="url(#clip-path)">
        <path id="Path_1907" data-name="Path 1907" d="M112.692,43.794a9.283,9.283,0,0,1-.6,2.7,4.893,4.893,0,0,1-1.451,2.018q-1.934,1.877-6.255,1.877h-15.3q-5.063,0-7-2.615-1.649-2.161-1.649-6.484V35.434a39.987,39.987,0,0,1-7.763,7.592A49.119,49.119,0,0,1,61.85,49.139l-.057-8.929a11.011,11.011,0,0,0,2.218-.4A13.32,13.32,0,0,0,66,39.131V15.359H62.078V12.231H66V.743h8.3V12.231H78.4v3.127H74.3V36.344a14.533,14.533,0,0,0,3.071-1.024,19.87,19.87,0,0,0,3.071-1.705V20.591l-3.412,1.023V18.487l3.412-1.081V3.87h7.962V14.789l3.469-.966V.061H99.44v11.2l6.37-2.047a3.617,3.617,0,0,1,1.934-.143,3.859,3.859,0,0,1,2.672,2.019,3.2,3.2,0,0,1,.4,1.535V32.364a5.3,5.3,0,0,1-1.99,4.549,5.9,5.9,0,0,1-2.389.938,6.643,6.643,0,0,1-2.673-.028,8.837,8.837,0,0,1-2.3-.825A6.082,6.082,0,0,1,99.44,35.32v6.426H91.877V17.008l-3.469,1.081V44.761a2.448,2.448,0,0,0,.967,1.9,3.469,3.469,0,0,0,2.332.825h11.6a9.03,9.03,0,0,0,2.5-.313,6.944,6.944,0,0,0,1.934-.881,5,5,0,0,0,1.336-1.251,13.426,13.426,0,0,0,1-1.593,11.576,11.576,0,0,0,.853-3.214q.227-1.79.341-3.554h.512a18.816,18.816,0,0,1,.824,3.782,18.234,18.234,0,0,1,.086,3.326m-9.611-29.458a.625.625,0,0,0-.227-.484.576.576,0,0,0-.512-.142l-2.9.911V32.647a6.437,6.437,0,0,0,.911.854,2.555,2.555,0,0,0,1.081.511,1.269,1.269,0,0,0,1.251-.17,1.684,1.684,0,0,0,.4-1.309Z" transform="translate(-3.729 -0.004)" fill="#333"/>
        <path id="Path_1908" data-name="Path 1908" d="M123.889,25.716V22.588H138.5V8.826H125.026V5.641h11.886a13,13,0,0,1-3.555-2.247A7.558,7.558,0,0,1,131.168.181h9.612a12.206,12.206,0,0,0,1.308,2.93,10.837,10.837,0,0,0,2.161,2.531h9.1A8.038,8.038,0,0,0,155.764,3.2a16.383,16.383,0,0,0,1.45-2.957h10.009a7.7,7.7,0,0,1-2.246,3.156,11.4,11.4,0,0,1-3.668,2.247h11.772V8.826H159.546V22.588H174.5v3.128Zm12.028-5.232a13.547,13.547,0,0,1-2.133-.057,11.229,11.229,0,0,1-3.469-.8,5.187,5.187,0,0,1-2.615-2.219,18.954,18.954,0,0,1-1.422-3.3q-.627-1.877-1.081-3.869h8.644q.454,1.992.967,3.982a27.117,27.117,0,0,0,1.308,3.867,2.562,2.562,0,0,0,1.819,1.763v.455q-1.023.114-2.018.171m33.866,28.093a5.572,5.572,0,0,1-1.962,1.337,7.033,7.033,0,0,1-2.7.483H139.926a4.985,4.985,0,0,1-2.389-.682,4.04,4.04,0,0,1-1.82-1.99V50.4H126.96V28.673h8.758v2.616a4.188,4.188,0,0,1,1.876-1.962,6.3,6.3,0,0,1,2.957-.654h24.967a5.112,5.112,0,0,1,2.36.568,6.4,6.4,0,0,1,1.9,1.478,6.524,6.524,0,0,1,1.081,1.764,5.21,5.21,0,0,1,.4,1.991v9.837a6.015,6.015,0,0,1-1.478,4.265m-7.337-14.331a2.765,2.765,0,0,0-.511-1.706A1.841,1.841,0,0,0,160.4,31.8H135.717v6.028h26.729Zm0,6.654H135.717v6.313h24.227a2.63,2.63,0,0,0,1.933-.626,3.1,3.1,0,0,0,.568-2.1ZM150.9,8.826h-3.583V22.588H150.9Zm21.752,5.232a15.954,15.954,0,0,1-1.393,3.355,4.678,4.678,0,0,1-2.218,2.189,12.26,12.26,0,0,1-3.071.939,12.6,12.6,0,0,1-5.459-.17l-.057-.456a2.91,2.91,0,0,0,1.252-.6,3.372,3.372,0,0,0,.91-1,20.068,20.068,0,0,0,1.621-4.123q.6-2.188.881-3.839h8.588q-.569,1.993-1.052,3.7" transform="translate(-7.475 -0.011)" fill="#333"/>
        <path id="Path_1909" data-name="Path 1909" d="M235.505,22.276a9.269,9.269,0,0,1-2.615,1.109,8.491,8.491,0,0,1-4.664.057,6.762,6.762,0,0,1-2.219-1.11,7.535,7.535,0,0,1-1.819-2.018,13.792,13.792,0,0,1-1.223-2.161q-.483-1.08-.938-2.275a2.752,2.752,0,0,0-.569-1.024,6.53,6.53,0,0,0-.91-.852,6.743,6.743,0,0,0-2.389-.967q-.569-.113-1.137-.171c-.38-.037-.778-.056-1.194-.056v10.18h-9.1V13.318a24.3,24.3,0,0,0-3.555.74,21.543,21.543,0,0,0-3.44,1.307,9,9,0,0,1-1.876,3.782,10.757,10.757,0,0,1-3.356,2.644,18.363,18.363,0,0,1-4.407,1.565,19.681,19.681,0,0,1-5.147.426l-.114-.454a13.12,13.12,0,0,0,5.8-5.972,13.641,13.641,0,0,0,1.023-3.44,19.025,19.025,0,0,0,.171-3.952h8.758c-.039.3-.067.653-.085,1.051s-.048.787-.086,1.167q1.479-.457,3.242-.911t3.071-.74V7.689H186.54V4.5h20.189V.182h9.1V4.5h20.3V7.689h-20.3V9.964q1.99,0,3.839.143a33.921,33.921,0,0,1,3.668.482,24.117,24.117,0,0,1,2.872.683,10.756,10.756,0,0,1,2.247.967,4.605,4.605,0,0,1,1.393,1.251,15.015,15.015,0,0,1,1.222,1.99q.4.8.71,1.507c.209.475.427.958.654,1.451a3.357,3.357,0,0,0,2.1,1.99,4.066,4.066,0,0,0,2.958-.4l.341.4a12.683,12.683,0,0,1-2.332,1.848M186.142,47.384h50.387v3.185H186.142Zm46.975-6.767a4.124,4.124,0,0,1-.968,1.649,5.711,5.711,0,0,1-4.379,1.763H203.317a6.436,6.436,0,0,1-3.014-.681,5.88,5.88,0,0,1-2.047-2.048v2.5h-9.1V24.067h9.1v2.673a5.939,5.939,0,0,1,5.175-2.616H226.8a8.705,8.705,0,0,1,2.873.483,5.7,5.7,0,0,1,2.189,1.279,5.55,5.55,0,0,1,1.593,4.1v8.473a6.813,6.813,0,0,1-.341,2.161m-8.645-10.805a2.22,2.22,0,0,0-.8-1.764,3.3,3.3,0,0,0-1.024-.568,3.8,3.8,0,0,0-1.308-.227H198.256V32.2h26.217Zm0,5.687-26.217-.057v5.347h23.2a3.488,3.488,0,0,0,2.275-.74,2.36,2.36,0,0,0,.74-1.82Z" transform="translate(-11.153 -0.011)" fill="#333"/>
        <path id="Path_1910" data-name="Path 1910" d="M266.531,47.765A17.5,17.5,0,0,1,261.9,49.9a18.983,18.983,0,0,1-3.867.853,24.986,24.986,0,0,1-4.151.114q-1.876-.114-3.9-.37a32.53,32.53,0,0,1-3.839-.71l.056-.512a28.141,28.141,0,0,0,3.64-.455,17.711,17.711,0,0,0,3.412-1.023,16.571,16.571,0,0,0,2.673-1.422,13.108,13.108,0,0,0,2.5-2.161h12.056a18.188,18.188,0,0,1-3.952,3.555m-5.744-33.894A16.968,16.968,0,0,1,259,17.538a4.972,4.972,0,0,1-1.394,1.479,7.578,7.578,0,0,1-1.791.91,8.565,8.565,0,0,1-4.1.285,8.351,8.351,0,0,1-4.549-2.048l.17-.4a4.175,4.175,0,0,0,2.048-.056,2.79,2.79,0,0,0,1.592-1.194,21.84,21.84,0,0,0,1.593-3.3q.624-1.649,1.081-3.184h8.359q-.51,1.82-1.223,3.839m-2.985-5.6a6.6,6.6,0,0,1-3.98-.455,6.267,6.267,0,0,1-2.446-2.445q-.8-1.308-1.422-2.56T248.873.42H257.8q.285.8.8,1.962a14.333,14.333,0,0,0,1.023,1.962,3.124,3.124,0,0,0,1.194,1.138,2.762,2.762,0,0,0,1.878.171l.171.51a11.2,11.2,0,0,1-5.062,2.1m35.942,32.7a6,6,0,0,1-4.606,1.705H263.261a3.568,3.568,0,0,1-2.048-.711,4.756,4.756,0,0,1-1.593-1.9v2.616h-8.473V21.632h8.473v2.731a5.776,5.776,0,0,1,1.451-1.763,3.037,3.037,0,0,1,1.962-.853h26.274a5.718,5.718,0,0,1,4.209,1.706,5.058,5.058,0,0,1,1.649,3.867v9.5a6,6,0,0,1-1.422,4.151M297.07,20.3a14.511,14.511,0,0,1-3.042.654,19.749,19.749,0,0,1-3.469-.086,17.941,17.941,0,0,1-3.413-.654,12.281,12.281,0,0,1-3.838-1.906q-1.507-1.164-3.327-2.7a19.836,19.836,0,0,1-4.379,2.787,25.912,25.912,0,0,1-5,1.706,35.183,35.183,0,0,1-5.545.626,48.486,48.486,0,0,1-6.171-.171l-.057-.512a31.7,31.7,0,0,0,5.716-1.819,26.817,26.817,0,0,0,5.317-3.014,23.052,23.052,0,0,0,3.385-3.27,16.006,16.006,0,0,0,2.473-4.066H285.1a23.683,23.683,0,0,1-1.024,2.218q-.568,1.081-1.194,2.048h5.176a23.3,23.3,0,0,0,3.213,3.071,32.878,32.878,0,0,0,3.555,2.445,7.621,7.621,0,0,0,2.331.853,8.253,8.253,0,0,0,2.5.171l.114.4a14.023,14.023,0,0,1-2.7,1.222M286.8,26.58a1.512,1.512,0,0,0-.569-1.137,1.773,1.773,0,0,0-1.194-.512H259.621v2.616H286.8Zm0,4.094H259.621v2.843H286.8Zm0,5.972H259.621V39.49h25.308a1.935,1.935,0,0,0,1.28-.511,1.588,1.588,0,0,0,.6-1.252ZM297.667,7.7a16.622,16.622,0,0,1-.2,1.677A15.748,15.748,0,0,1,297.1,11h-8.3a15.314,15.314,0,0,0,.427-1.621q.2-.939.313-1.734a1.106,1.106,0,0,0-.313-.939,1.145,1.145,0,0,0-.824-.37H274.18a6.657,6.657,0,0,1-2.218,2.958,7.512,7.512,0,0,1-3.356,1.307,9.62,9.62,0,0,1-3.384-.028,8.606,8.606,0,0,1-3.156-1.222l.114-.512a3.046,3.046,0,0,0,1.9-.285,2.9,2.9,0,0,0,1.393-1.421q.8-1.649,1.422-3.327a26.642,26.642,0,0,0,1.024-3.44h8.644a16.509,16.509,0,0,1-.71,2.189q-.427,1.053-.881,2.132a5.989,5.989,0,0,1,1.848-1.165,5.353,5.353,0,0,1,2.018-.427H293.06a4.545,4.545,0,0,1,3.7,1.649,4.893,4.893,0,0,1,.911,2.957m-6.2,43.392q-2.1-.114-4.151-.427a17.172,17.172,0,0,1-3.868-1.051,17.852,17.852,0,0,1-3.923-2.219,15.159,15.159,0,0,1-3.243-3.185h11.829a16.646,16.646,0,0,0,2.73,2.5,17.465,17.465,0,0,0,3.072,1.763A18.014,18.014,0,0,0,300,49.9l.057.511a35.359,35.359,0,0,1-8.588.683" transform="translate(-14.852 -0.022)" fill="#333"/>
        <path id="Path_1911" data-name="Path 1911" d="M309.751,8.587V5.459h6.2V0h8.871V5.459h6.085V8.587Zm1.593,4.721h18.028v3.185H311.344Zm0,7.905h18.028V24.34H311.344Zm16.833,27.7a4.322,4.322,0,0,1-3.185,1.252H322.6a3.183,3.183,0,0,1-1.934-.74,3.625,3.625,0,0,1-1.308-1.877V50.16h-8.018V28.946h8.018v2.617a3.284,3.284,0,0,1,1.28-1.877,3.125,3.125,0,0,1,1.791-.74h2.5a4.337,4.337,0,0,1,3.013,1.2,3.791,3.791,0,0,1,1,1.251,3.393,3.393,0,0,1,.37,1.535v13.08a3.929,3.929,0,0,1-1.138,2.9M321.75,33.155a.981.981,0,0,0-.313-.71,1.043,1.043,0,0,0-.768-.313h-1.308v14.9h1.251a1.205,1.205,0,0,0,.8-.284.861.861,0,0,0,.341-.683Zm21.213-5.63V50.274h-8.417V27.525h-3.981V24.34h3.981V6.6h8.417V24.34h3.98v3.185Zm18.994,17.8a7.645,7.645,0,0,1-.91,3.583,3.779,3.779,0,0,1-1.451,1.222,5.724,5.724,0,0,1-2.246.483q-1.309.056-2.36.028t-2.53-.142a4.854,4.854,0,0,1-3.412-1.592,5.421,5.421,0,0,1-1.252-3.526V6.2a2.089,2.089,0,0,0-.824-1.763,2.911,2.911,0,0,0-1.792-.626H331.419V.626h18.539a6.208,6.208,0,0,1,2.446.483,6.773,6.773,0,0,1,1.99,1.28,6.357,6.357,0,0,1,1.45,1.819,4.465,4.465,0,0,1,.54,2.1V46.69a.622.622,0,0,0,.285.54,1.253,1.253,0,0,0,.739.2,1.43,1.43,0,0,0,1.308-.626,10.169,10.169,0,0,0,1.308-4.293,36.816,36.816,0,0,0,.228-5.829l.511-.057a34.5,34.5,0,0,1,.939,4.237,21.123,21.123,0,0,1,.256,4.464" transform="translate(-18.691 0)" fill="#333"/>
        <path id="Path_1912" data-name="Path 1912" d="M417.178,6.96q.056.911.143,2.076a6.886,6.886,0,0,0,.483,2.133,5.5,5.5,0,0,0,1.024,1.649,3.421,3.421,0,0,0,1.535.967v.455a14.049,14.049,0,0,1-2.873.285,14.033,14.033,0,0,1-2.872-.285,8.459,8.459,0,0,1-2.986-1.081,5.631,5.631,0,0,1-1.847-1.877,5.912,5.912,0,0,1-.825-1.934,16.575,16.575,0,0,1-.369-2.389h-1.252a7.11,7.11,0,0,1-.824,1.906,14.692,14.692,0,0,1-1.337,1.877,13.95,13.95,0,0,1-1.564,1.593,6.33,6.33,0,0,1-1.621,1.051v2.332h14.445a5.187,5.187,0,0,1,4.208,1.762,4.821,4.821,0,0,1,1.194,3.47v3.7h-4.208a6.259,6.259,0,0,1,.256,1.194,9.4,9.4,0,0,1,.085,1.138v1.705a5.358,5.358,0,0,1-1.194,3.47,4.644,4.644,0,0,1-1.479,1.08,4.51,4.51,0,0,1-1.933.4H387.549a3.479,3.479,0,0,1-2.047-.74,3.863,3.863,0,0,1-1.422-1.82v8.872a4.95,4.95,0,0,1,1.535-1.906,3.251,3.251,0,0,1,1.934-.71h27.809a4.937,4.937,0,0,1,1.99.4,5,5,0,0,1,1.535,1.024,4.859,4.859,0,0,1,1.308,3.3v4.094a4.182,4.182,0,0,1-4.379,4.322H387.378a3,3,0,0,1-1.934-.824,4.761,4.761,0,0,1-1.364-1.791v2.672h-8.872V24.647h-2.559V15.6h8.7v2.673a4.63,4.63,0,0,1,1.564-1.819,3.916,3.916,0,0,1,2.3-.74h7.507V14.24a16.326,16.326,0,0,1-3.9-.427A6.356,6.356,0,0,1,385.9,12.25q-1.99-1.707-1.99-5.289h-1.023a13.942,13.942,0,0,1-2.1,3.1,14.633,14.633,0,0,1-2.786,2.416,17.3,17.3,0,0,1-3.27,1.707,16.854,16.854,0,0,1-3.5.966l-.227-.4a11.533,11.533,0,0,0,2.076-3.155,18.225,18.225,0,0,0,1.165-3.611,28.458,28.458,0,0,0,.54-3.811q.142-1.932.2-3.809h9.27q-.114.8-.17,1.763a10.279,10.279,0,0,1-.228,1.705h14.275V6.96h-5.915a13.6,13.6,0,0,0,.228,2.958,5.506,5.506,0,0,0,1.137,2.615h4.038a13.342,13.342,0,0,0,1.962-5.715,56.485,56.485,0,0,0,.369-6.455H408.7q-.058.909-.143,1.763t-.256,1.705h13.876V6.96Zm-4.094,13.877a1.871,1.871,0,0,0-.626-1.394,2.009,2.009,0,0,0-1.422-.6H381.35v3.241h2.73v2.559a5.957,5.957,0,0,1,1.621-1.819,3.51,3.51,0,0,1,2.132-.74h25.251Zm-3.754,6.028a1.524,1.524,0,0,0-.6-1.109,1.77,1.77,0,0,0-1.166-.54H384.08V30.5h23.487a1.575,1.575,0,0,0,1.308-.568,2.032,2.032,0,0,0,.455-1.308Zm2.1,15.184a1.548,1.548,0,0,0-.6-1.023,1.781,1.781,0,0,0-1.223-.568H384.08v6.881h25.477a1.828,1.828,0,0,0,1.28-.569,1.7,1.7,0,0,0,.6-1.251Z" transform="translate(-22.386 -0.022)" fill="#333"/>
        <path id="Path_1913" data-name="Path 1913" d="M444.222,42.3a64.729,64.729,0,0,1-9.924,5.517v-9.1q1.137-.114,2.474-.313t2.36-.427v-14.9h-4.549V19.948h4.549V5.333h-4.947V2.2h18.369V5.333h-4.493V19.948h3.754v3.128h-3.754v12.4a17.712,17.712,0,0,0,2.218-.71q1.08-.427,2.162-.939l.284.4a36.077,36.077,0,0,1-8.5,8.074m7.194,8.246V47.417h13.307v-8.53H453.919V35.757h10.805v-7.28a7.108,7.108,0,0,1-1.45-1.051,3.6,3.6,0,0,1-1-1.451v2.616h-8.474V.726h8.474V3.172a4.363,4.363,0,0,1,1.364-1.65,3.024,3.024,0,0,1,1.82-.682h13.023A4.871,4.871,0,0,1,482.411,2.6a5.213,5.213,0,0,1,.824,1.45,5.035,5.035,0,0,1,.313,1.791V23.758a4.582,4.582,0,0,1-1.479,3.527,5.547,5.547,0,0,1-3.924,1.478h-5v6.995h10.294v3.129H473.14v8.53h11.772v3.127ZM464.724,3.967h-2.445v8.986h2.445Zm0,12.114h-2.445v9.27h2.445ZM475.7,6.3a2.094,2.094,0,0,0-.683-1.706,2.551,2.551,0,0,0-1.876-.626v8.986h2.56Zm0,9.782h-2.56v9.27a2.427,2.427,0,0,0,1.82-.4,1.716,1.716,0,0,0,.739-1.592Z" transform="translate(-26.199 -0.044)" fill="#333"/>
        <path id="Path_1914" data-name="Path 1914" d="M545.544,48.61a14.3,14.3,0,0,1-2.9.768,8,8,0,0,1-4.663-.568,7.689,7.689,0,0,1-3.3-3.3q-.682-1.252-1.223-2.474t-1.052-2.417a6.788,6.788,0,0,0-2.445-3.242,7.394,7.394,0,0,0-4.038-1.251v7.791a6.761,6.761,0,0,1-.654,2.957,7.616,7.616,0,0,1-1.792,2.389,6.247,6.247,0,0,1-2.815,1.507,8.631,8.631,0,0,1-3.5.142,11.855,11.855,0,0,1-2.473-.824,9.9,9.9,0,0,1-2.133-1.337,13.531,13.531,0,0,1-2.9-3.526l.34-.284a14.452,14.452,0,0,0,1.621.966,13.443,13.443,0,0,0,1.678.74,2.48,2.48,0,0,0,2.5-.341,2.432,2.432,0,0,0,.91-1.99V36.582a21.281,21.281,0,0,0-3.839.8,34.575,34.575,0,0,0-3.668,1.365,44.807,44.807,0,0,1-1.081,5.459,6.175,6.175,0,0,1-1.308,2.331,6.91,6.91,0,0,1-2.218,1.649,8.958,8.958,0,0,1-2.843.911,8.388,8.388,0,0,1-3.071-.114,9.135,9.135,0,0,1-2.1-.683,16.52,16.52,0,0,1-1.933-1.08l.17-.512a4.91,4.91,0,0,0,3.469-.569,3.325,3.325,0,0,0,1.023-.994,3.407,3.407,0,0,0,.626-1.564q.455-2.445.74-5.006t.455-5.061h8.416a6.338,6.338,0,0,1,.029,1.052,5.455,5.455,0,0,1-.143,1.051,42.68,42.68,0,0,1,7.28-1.82V30.952H500.56a2.362,2.362,0,0,1-2.331-3.326,2.424,2.424,0,0,1,1.08-1.11L515.4,18.043H501.185a2,2,0,0,1-1.393-.484,1.952,1.952,0,0,1-.654-1.165,1.726,1.726,0,0,1,.17-1.138,2.454,2.454,0,0,1,.911-.966L513.7,6.327h-15.98V3.143h33.667a2,2,0,0,0,1.109-.313A4.626,4.626,0,0,0,533.43,2,6.882,6.882,0,0,0,534.682.242H545.26a11.462,11.462,0,0,1-1.195,2.219,10.412,10.412,0,0,1-1.706,1.933,8.859,8.859,0,0,1-1.933,1.394,4.662,4.662,0,0,1-2.219.54H528.028l-14.1,8.588h7.165l7.507-4.322h14.616L513.868,27.37a.384.384,0,0,0-.171.341.264.264,0,0,0,.171.285q3.071.056,5.943.084T525.7,28a24.586,24.586,0,0,0,3.782-.428q1.962-.369,3.5-.768-.627-1.2-1.393-2.73t-1.337-2.843h9.327q.795,1.705,1.507,3.27a29.949,29.949,0,0,0,1.677,3.156,3.991,3.991,0,0,0,1.906,1.649,4.235,4.235,0,0,0,2.644.285l.114.512a11.156,11.156,0,0,1-2.985,1.45,11.966,11.966,0,0,1-3.1.54,8.87,8.87,0,0,1-6.483-2.5,29.454,29.454,0,0,1-4.351.938q-2.248.314-4.578.427v2.275q1.535.058,3.1.142t3.043.257a22.1,22.1,0,0,1,2.957.6,8.383,8.383,0,0,1,2.275,1,8.654,8.654,0,0,1,3.3,3.925c.151.34.332.749.541,1.222s.426.967.653,1.478.456,1.005.682,1.479.436.9.626,1.279a3.789,3.789,0,0,0,2.161,2.1,5.567,5.567,0,0,0,2.73.284l.114.456a20.465,20.465,0,0,1-2.559,1.165" transform="translate(-29.847 -0.015)" fill="#333"/>
        <path id="Path_1915" data-name="Path 1915" d="M564.871,45.02a7.908,7.908,0,0,1-1.507,2.531,7.445,7.445,0,0,1-2.559,1.9,18.954,18.954,0,0,1-3.355,1.165l-.285-.34a6.891,6.891,0,0,0,1.451-2.3,7.6,7.6,0,0,0,.483-2.7V34.129h6.255v7.563a8.739,8.739,0,0,1-.483,3.327M578.52,32.594a7.767,7.767,0,0,1-3.5-1.535,16.661,16.661,0,0,1-3.071.853,30.3,30.3,0,0,1-3.242.4,55.179,55.179,0,0,1-7.507-.171,2.965,2.965,0,0,1-2.616-1.764A2.791,2.791,0,0,1,558.3,28.9a2.745,2.745,0,0,1,.569-1.478l6.881-9.441H561.43a3.391,3.391,0,0,1-1.848-.484,3.741,3.741,0,0,1-1.222-1.222,3.707,3.707,0,0,1-.455-2.048,4.215,4.215,0,0,1,.738-2.161L566.548.121h9.5l-9.383,14.047a.541.541,0,0,0,0,.484.4.4,0,0,0,.4.255h.853L571.5,9.96h9.952l-8.474,11.715h6.2V28.1a3.833,3.833,0,0,0,.313,1.565,3.946,3.946,0,0,0,.824,1.222,4.654,4.654,0,0,0,2.161,1.309v.511a13.783,13.783,0,0,1-3.952-.114m-3.9,18.426a11.657,11.657,0,0,1-2.985-.71,8.063,8.063,0,0,1-2.474-1.507,6.478,6.478,0,0,1-1.763-2.418,8.15,8.15,0,0,1-.626-3.269V34.129h6.256V46.754a4.684,4.684,0,0,0,1.819,3.81Zm-1.535-22.577q-.228-1.308-.4-2.928a23.409,23.409,0,0,1-.115-3.271l-4.492,6.142a.408.408,0,0,0-.056.456.457.457,0,0,0,.455.227,11.446,11.446,0,0,0,2.389-.143,17.518,17.518,0,0,0,2.218-.483m18.369,12.54a14.478,14.478,0,0,1-1.934,4.579q-3.242,4.89-11.146,5.8l-.171-.4c.265-.191.55-.408.853-.654a4.086,4.086,0,0,0,.739-.768,7.085,7.085,0,0,1-1.848-.853,8.114,8.114,0,0,1-1.564-1.308,8.014,8.014,0,0,1-1.536-2.331,6.92,6.92,0,0,1-.568-2.787V34.129H580.6V45.276a7.712,7.712,0,0,0,.143,1.478,5.974,5.974,0,0,0,.426,1.364,11.911,11.911,0,0,0,2.133-4.237,18.2,18.2,0,0,0,.6-4.692V27.475h8.189v7.677a24.9,24.9,0,0,1-.625,5.83m16.435-14.673a15.082,15.082,0,0,1-2.786-.086,9.6,9.6,0,0,1-2.673-.709,7.811,7.811,0,0,1-2.275-1.508,37.943,37.943,0,0,1-7.506,1.536,44.205,44.205,0,0,1-4.692.312,29.987,29.987,0,0,1-4.408-.256,4.6,4.6,0,0,1-1.763-.568,3.531,3.531,0,0,1-1.364-4.891l4.891-11.317h-6.029V5.7H589.3V.235h9.213V5.7h9.667V8.822H594.415l-5.631,12.966a.646.646,0,0,0,.114.74,1,1,0,0,0,.74.285q.967-.058,2.1-.171t2.3-.285q1.164-.171,2.275-.427c.738-.171,1.411-.35,2.018-.54a34.863,34.863,0,0,1-1.593-5q-.626-2.616-1.081-5.347h8.417q.454,3.071,1.081,6.085a31.417,31.417,0,0,0,1.763,5.744,4.331,4.331,0,0,0,1.45,1.82,3.593,3.593,0,0,0,2.189.74l.057.511a17.688,17.688,0,0,1-2.731.369m1.877,19.819a6.316,6.316,0,0,1-1.479,3.242,5.376,5.376,0,0,1-3.526,1.308,12.073,12.073,0,0,1-2.474-.028q-1.28-.142-2.417-.257a4.179,4.179,0,0,1-1.677-.454,5.682,5.682,0,0,1-1.394-1.024,5.1,5.1,0,0,1-1.535-3.753V27.475h8.7V44.934a1.074,1.074,0,0,0,.426.967,1.65,1.65,0,0,0,.939.285,2.8,2.8,0,0,0,1.166-.369,1.5,1.5,0,0,0,.711-.825,17.935,17.935,0,0,0,.825-4.493,45.773,45.773,0,0,0,.028-4.835l.512-.056a35.93,35.93,0,0,1,1.28,5.147,13.86,13.86,0,0,1-.085,5.374" transform="translate(-33.62 -0.008)" fill="#333"/>
      </g>
    </g>
  </g>
</svg>
